<svg width="30" height="30" viewBox="0 0 79 79" xmlns="http://www.w3.org/2000/svg"><g><path d="M16 40.2l-1.4-1.4c-4.5-4.5-5.8-10.8-4.2-16.5-4.5-1-7.8-5-7.8-9.8 0-5.5 4.5-10 10-10 5 0 9.1 3.6 9.9 8.4 5.4-1.3 11.3.2 15.5 4.4l.6.6-7.4 7.4-.6-.6c-2.4-2.4-6.3-2.4-8.7 0-2.4 2.4-2.4 6.3 0 8.7L38.5 48l-7.4 7.4-7.8-7.8-7.3-7.4z" fill="#7ac143"/><path d="M24.3 32l7.8-7.8 7.4-7.4 1.4-1.4c4.4-4.4 10.8-5.8 16.4-4.2.7-4.9 4.9-8.6 9.9-8.6 5.5 0 10 4.5 10 10 0 5.1-3.8 9.3-8.7 9.9 1.6 5.6.2 11.9-4.2 16.3l-.6.6-7.2-7.4.6-.6c2.4-2.4 2.4-6.3 0-8.7-2.4-2.4-6.3-2.4-8.7 0L47 24.1l-7.4 7.4-7.8 7.8-7.5-7.3z" fill="#f9a541"/><path d="M57.6 69.3c-5.7 1.7-12.1.4-16.6-4.1l-.6-.6 7.4-7.4.6.6c2.4 2.4 6.3 2.4 8.7 0 2.4-2.4 2.4-6.3 0-8.7l-1.4-1.4-7.4-7.4-7.8-7.8 7.4-7.4 16.7 16.7C68.8 46 70.3 52 69 57.5c4.9.7 8.6 4.9 8.6 9.9 0 5.5-4.5 10-10 10-5-.1-9.1-3.6-10-8.1z" fill="#f44321"/><path d="M54.7 48.5l-7.8 7.8-7.4 7.4-1.4 1.4c-4.3 4.3-10.3 5.7-15.7 4.4-1 4.5-5 7.8-9.8 7.8-5.5 0-10-4.5-10-10 0-4.7 3.3-8.7 7.7-9.7-1.4-5.6 0-11.6 4.3-15.9l.6-.6 7.4 7.4-.6.6c-2.4 2.4-2.4 6.3 0 8.7 2.4 2.4 6.3 2.4 8.7 0l1.4-1.4 7.4-7.4 7.8-7.8 7.4 7.3z" fill="#5091cd"/></g></svg>